<?xml version="1.0" encoding="UTF-8"?><svg id="Layer_1" xmlns="http://www.w3.org/2000/svg" viewBox="0 0 17.1 21.77"><defs><style>.cls-1{fill:#888;}</style></defs><path class="cls-1" d="M17.1,.94v15.26c0,.56-.08,1.1-.33,1.61-.38,.78-1.01,1.28-1.84,1.52-.47,.13-.95,.21-1.43,.23-1.27,.06-2.37-.8-2.59-2.05-.19-1.03,.3-2.17,1.38-2.7,.43-.21,.9-.33,1.36-.42,.5-.11,1.01-.21,1.51-.33,.37-.08,.61-.3,.68-.69,.02-.08,.03-.17,.03-.25V5.86c0-.08-.02-.17-.04-.24-.05-.21-.2-.33-.41-.32s-.42,.05-.63,.09c-1.01,.2-2.03,.4-3.04,.61l-4.93,1s-.05,0-.07,0c-.37,.11-.5,.27-.51,.66-.01,.05,0,.11,0,.17-.01,3.47,0,6.94-.01,10.41,0,.56-.06,1.11-.28,1.63-.37,.85-1.03,1.39-1.92,1.65-.46,.13-.94,.21-1.43,.23-1.28,.04-2.34-.81-2.56-2.06-.19-1.08,.31-2.25,1.54-2.77,.47-.2,.97-.31,1.47-.41,.38-.08,.77-.16,1.15-.24,.51-.11,.78-.43,.8-.95V3.29c0-.17,.02-.34,.06-.5,.09-.38,.36-.6,.73-.69,.34-.08,.69-.15,1.03-.22,.98-.2,1.95-.4,2.93-.59l3.03-.61c.89-.18,1.78-.36,2.68-.54,.29-.06,.59-.12,.88-.14,.42-.04,.7,.22,.74,.64,.01,.1,.02,.2,.02,.3Z"/></svg>