<?xml version="1.0" encoding="UTF-8"?><svg id="Layer_1" xmlns="http://www.w3.org/2000/svg" viewBox="0 0 21.86 18.17"><defs><style>.cls-1{fill:#fff;}</style></defs><path class="cls-1" d="M4.38,2.91c-.42,.42-.4,.98-.04,1.28,.36,.33,.87,.33,1.29-.08,1.31-1.42,3.21-2.32,5.31-2.32,3.72,0,6.72,2.73,7.21,6.24h-1.33c-.67,0-.85,.49-.47,1.04l2.09,2.95c.32,.44,.8,.44,1.12,0l2.09-2.94c.4-.54,.21-1.05-.47-1.05h-1.23C19.44,3.58,15.57,0,10.93,0c-2.58,0-4.94,1.14-6.56,2.91h0ZM.2,9.09c-.39,.54-.21,1.05,.47,1.05H1.92c.51,4.46,4.38,8.03,9.02,8.03,2.59,0,4.95-1.14,6.57-2.92,.41-.42,.39-.98,.04-1.29-.36-.33-.86-.32-1.29,.09-1.3,1.43-3.2,2.33-5.32,2.33-3.71,0-6.72-2.72-7.21-6.24h1.32c.67,0,.85-.49,.47-1.04l-2.09-2.95c-.32-.44-.8-.44-1.12,0L.2,9.09Z"/></svg>